<svg id="visual" viewBox="0 0 900 600" width="900" height="600" xmlns="http://www.w3.org/2000/svg" xmlns:xlink="http://www.w3.org/1999/xlink" version="1.1"><rect width="900" height="600" fill="#001829"></rect><g><g transform="translate(356 519)"><path d="M0 -120.8L94.4 -75.3L117.7 26.9L52.4 108.8L-52.4 108.8L-117.7 26.9L-94.4 -75.3Z" fill="none" stroke="#297EA6" stroke-width="2"></path></g><g transform="translate(779 291)"><path d="M0 -73L57.1 -45.5L71.2 16.2L31.7 65.8L-31.7 65.8L-71.2 16.2L-57.1 -45.5Z" fill="none" stroke="#297EA6" stroke-width="2"></path></g><g transform="translate(525 231)"><path d="M0 -70L54.7 -43.6L68.2 15.6L30.4 63.1L-30.4 63.1L-68.2 15.6L-54.7 -43.6Z" fill="none" stroke="#297EA6" stroke-width="2"></path></g><g transform="translate(238 112)"><path d="M0 -64L50 -39.9L62.4 14.2L27.8 57.7L-27.8 57.7L-62.4 14.2L-50 -39.9Z" fill="none" stroke="#297EA6" stroke-width="2"></path></g><g transform="translate(852 572)"><path d="M0 -106L82.9 -66.1L103.3 23.6L46 95.5L-46 95.5L-103.3 23.6L-82.9 -66.1Z" fill="none" stroke="#297EA6" stroke-width="2"></path></g><g transform="translate(62 483)"><path d="M0 -47L36.7 -29.3L45.8 10.5L20.4 42.3L-20.4 42.3L-45.8 10.5L-36.7 -29.3Z" fill="none" stroke="#297EA6" stroke-width="2"></path></g><g transform="translate(716 15)"><path d="M0 -111L86.8 -69.2L108.2 24.7L48.2 100L-48.2 100L-108.2 24.7L-86.8 -69.2Z" fill="none" stroke="#297EA6" stroke-width="2"></path></g><g transform="translate(17 241)"><path d="M0 -75L58.6 -46.8L73.1 16.7L32.5 67.6L-32.5 67.6L-73.1 16.7L-58.6 -46.8Z" fill="none" stroke="#297EA6" stroke-width="2"></path></g><g transform="translate(602 461)"><path d="M0 -86L67.2 -53.6L83.8 19.1L37.3 77.5L-37.3 77.5L-83.8 19.1L-67.2 -53.6Z" fill="none" stroke="#297EA6" stroke-width="2"></path></g></g></svg>